<svg xmlns="http://www.w3.org/2000/svg" viewBox="0 0 900 360"><defs><linearGradient id="c"><stop stop-color="#071a45"/><stop offset="1" stop-color="#2f70ff"/></linearGradient></defs><rect width="900" height="360" rx="32" fill="#edf3ff"/><circle cx="450" cy="180" r="120" fill="none" stroke="#b9cdf4" stroke-width="24"/><path d="M450 60a120 120 0 0 1 112 77L450 180z" fill="#2f70ff"/><path d="M562 137a120 120 0 0 1-38 135L450 180z" fill="#1abf89"/><path d="M524 272a120 120 0 0 1-174 0l100-92z" fill="#ffb44b"/><path d="M350 272a120 120 0 0 1 100-212v120z" fill="url(#c)"/><path d="M110 285l120-90 95 35M575 245l100-105 105 30" fill="none" stroke="#071a45" stroke-width="17" stroke-linecap="round" stroke-linejoin="round"/></svg>
